<svg width="100%" height="24" xmlns="http://www.w3.org/2000/svg"><path d="M5.857 18.708c1.638 0 2.995-.36 4.07-1.08 1.075-.721 1.613-1.769 1.613-3.144-.083-1.855-1.464-3.246-4.144-4.173l-1.44-.597c-.314-.1-.538-.198-.67-.298a.45.45 0 01-.198-.373c0-.414.273-.62.819-.62.678 0 1.182.347 1.513 1.043l3.698-1.044c-.893-2.22-2.614-3.329-5.162-3.329-1.522 0-2.788.398-3.797 1.193C1.15 7.08.645 8.116.645 9.39c0 .398.058.766.174 1.106.116.34.29.638.521.894.232.257.455.48.67.671.215.19.488.369.82.534.33.166.582.286.756.36.174.075.41.162.707.261l.422.15 1.49.546c.363.133.6.244.707.335a.449.449 0 01.16.36c0 .431-.404.647-1.215.647-1.191 0-1.903-.53-2.134-1.59L0 14.509c.463 2.8 2.416 4.2 5.857 4.2zm11.636 0c1.638 0 2.845-.63" fill="#FFF" fill-rule="nonzero"/></svg>